<?xml version="1.0" standalone="no"?><!DOCTYPE svg PUBLIC "-//W3C//DTD SVG 1.1//EN" "http://www.w3.org/Graphics/SVG/1.1/DTD/svg11.dtd"><svg t="1531203806541" class="icon" style="" viewBox="0 0 1024 1024" version="1.1" xmlns="http://www.w3.org/2000/svg" p-id="1898" xmlns:xlink="http://www.w3.org/1999/xlink" width="16" height="16"><defs><style type="text/css"></style></defs><path d="M512 163.84c-8.192 0-16.384 6.144-16.384 16.384l0 276.48L219.136 456.704c-8.192 0-16.384 6.144-16.384 14.336 0 8.192 6.144 16.384 16.384 16.384l276.48 0 0 276.48c0 8.192 6.144 16.384 16.384 16.384s16.384-6.144 16.384-16.384L528.384 180.224C526.336 169.984 520.192 163.84 512 163.84zM802.816 456.704 587.776 456.704c-8.192 0-16.384 6.144-16.384 14.336 0 8.192 6.144 16.384 16.384 16.384l215.04 0c8.192 0 16.384-6.144 16.384-16.384C819.2 462.848 813.056 456.704 802.816 456.704z" p-id="1899" fill="#6c848d"></path></svg>