<?xml version="1.0" standalone="no"?><!DOCTYPE svg PUBLIC "-//W3C//DTD SVG 1.1//EN" "http://www.w3.org/Graphics/SVG/1.1/DTD/svg11.dtd"><svg t="1531196602771" class="icon" style="" viewBox="0 0 1024 1024" version="1.1" xmlns="http://www.w3.org/2000/svg" p-id="1854" xmlns:xlink="http://www.w3.org/1999/xlink" width="16" height="16"><defs><style type="text/css"></style></defs><path d="M141.423987 960.591855 141.423987 336.464101l78.015841 0L219.439828 219.439828l97.520057 0L316.959885 63.408145l39.008432 0 0 156.031683 97.520057 0 0 117.024274 78.015841 0 0 234.047524 136.526443 0L668.030659 453.486328l117.02632 0 0-58.511625 39.008432 0 0 58.511625 58.511625 0 0 507.105526L141.423987 960.591855zM414.477896 258.44826 258.44826 258.44826l0 78.015841 156.029636 0L414.477896 258.44826zM492.495784 375.47151 180.431396 375.47151l0 546.109866 312.064388 0L492.495784 375.47151zM668.029636 609.518011 531.504216 609.518011l0 78.017888 136.526443 0L668.030659 609.518011zM668.029636 726.543308 531.504216 726.543308l0 78.015841 136.526443 0L668.030659 726.543308zM668.029636 843.567581 531.504216 843.567581l0 78.013795 136.526443 0L668.030659 843.567581zM843.567581 492.495784 707.040115 492.495784l0 78.015841 136.52849 0L843.568604 492.495784zM843.567581 609.518011 707.040115 609.518011l0 78.017888 136.52849 0L843.568604 609.518011zM843.567581 726.543308 707.040115 726.543308l0 78.015841 136.52849 0L843.568604 726.543308zM843.567581 843.567581 707.040115 843.567581l0 78.013795 136.52849 0L843.568604 843.567581zM297.455669 511.997953l-58.511625 0 0-58.511625 58.511625 0L297.455669 511.997953zM297.455669 629.024274l-58.511625 0 0-58.511625 58.511625 0L297.455669 629.024274zM297.455669 746.047524l-58.511625 0 0-58.511625 58.511625 0L297.455669 746.047524zM297.455669 863.071797l-58.511625 0 0-58.511625 58.511625 0L297.455669 863.071797zM433.984159 511.997953l-58.511625 0 0-58.511625 58.511625 0L433.984159 511.997953zM433.984159 629.024274l-58.511625 0 0-58.511625 58.511625 0L433.984159 629.024274zM433.984159 746.047524l-58.511625 0 0-58.511625 58.511625 0L433.984159 746.047524zM433.984159 863.071797l-58.511625 0 0-58.511625 58.511625 0L433.984159 863.071797z" p-id="1855" fill="#6c848d"></path></svg>