<?xml version="1.0" standalone="no"?><!DOCTYPE svg PUBLIC "-//W3C//DTD SVG 1.1//EN" "http://www.w3.org/Graphics/SVG/1.1/DTD/svg11.dtd"><svg t="1531196806864" class="icon" style="" viewBox="0 0 1448 1024" version="1.1" xmlns="http://www.w3.org/2000/svg" p-id="7048" xmlns:xlink="http://www.w3.org/1999/xlink" width="22.625" height="16"><defs><style type="text/css"></style></defs><path d="M321.150344 647.80514h782.836217v8.600706H321.150344z" fill="#6c848d" p-id="7049"></path><path d="M1048.942046 656.061818c-88.759281-36.983034-162.037292-111.809172-207.96506-167.885772-46.271796-56.592642-74.826138-106.30472-78.610448-113.185285l-3.268268-2.408198-11.69696 14.793214-14.621199-8.084663-12.901058 16.169326-29.758442-16.513354-13.245086 9.976818-5.84848-4.644381c-72.245926 128.838569-249.076432 269.890139-250.796573 271.266252l-5.332437-6.70855c1.720141-1.376113 181.302873-144.663867 251.140601-272.986393l2.408198-4.472367 8.600705 6.70855 12.55703-9.460776 28.382328 15.653284 12.901059-16.169326 14.449185 8.084663 12.55703-15.825298 11.352931 8.772719 0.344029 0.860071c0.344028 0.516042 29.070385 52.636318 78.26642 112.841256 45.239711 55.388544 117.485637 129.010583 204.524777 165.30556l-3.440282 7.91265z" fill="#6c848d" p-id="7050"></path><path d="M807.434235 565.582395c-2.580212 0-9.116748-3.268268-52.808332-41.111372-15.997312 28.210314-19.437594 28.210314-21.845792 28.210314-1.720141 0-3.268268-0.860071-4.300353-2.408197-0.344028-0.516042-0.860071-1.548127-1.548127-3.096254-11.180917-22.18982-16.513355-28.210314-18.749538-29.758442v0.172015c-5.676466 17.373425-30.102469 39.73526-43.691584 39.735259-4.300353 0-10.836889-2.92424-24.426004-25.974131-4.472367-7.568621-8.428691-15.137242-10.664875-19.781622L588.288258 537.71611l11.008903-36.81102-19.26558 3.78431-1.720141-8.428691 33.370737-6.536536-8.428691 28.554342 29.930455-19.093566 2.064169 4.300353c11.180917 23.393919 25.11406 44.551655 29.586427 45.239711 8.256677 0 30.274483-18.233496 35.434907-33.714766 1.720141-5.332437 5.160423-6.536536 7.052579-6.536536 6.880564-0.516042 14.105157 8.600706 26.834201 33.198723 3.956325-5.332437 10.664875-16.169326 15.997312-25.802117l2.580212-4.64438 3.956324 3.440282c20.641693 17.889467 43.691584 36.983034 50.572149 41.627414 2.580212-3.440282 7.740635-14.277171 10.836889-30.274483 2.752226-13.761129 7.052579-21.501764 13.761129-24.25399 9.116748-3.78431 19.093566 3.268268 29.758441 10.492861 7.224593 4.988409 14.621199 10.148833 21.673778 11.868974l-2.06417 8.256677c-8.600706-2.064169-16.685369-7.740635-24.598018-13.245086-8.256677-5.676466-16.685369-11.524945-21.501763-9.632791-2.580212 1.032085-6.020494 4.988409-8.600706 17.889468-2.752226 13.933143-9.976818 36.466991-18.061481 37.843104-0.516042 0.172014-0.860071 0.344028-1.032085 0.344028z" fill="#6c848d" p-id="7051"></path></svg>